<svg version="1.1" id="Layer_1" xmlns="http://www.w3.org/2000/svg" xmlns:xlink="http://www.w3.org/1999/xlink" x="0px" y="0px" viewBox="0 0 100 100" xml:space="preserve" width="100" height="100">
<path class="st0" d="M63.1,47l20.2,26.5c5.5,7.3,4.1,17.6-3.1,23.1c-2.9,2.2-6.4,3.4-10,3.4H29.8c-9.1,0-16.5-7.4-16.5-16.5  c0-3.6,1.2-7.1,3.4-10L36.9,47c5.5-7.3,15.9-8.7,23.1-3.1C61.2,44.7,62.2,45.8,63.1,47L63.1,47z M33.3,0c6.1,0,11.1,5,11.1,11.1v5.6  c0,6.1-5,11.1-11.1,11.1s-11.1-5-11.1-11.1v-5.6C22.2,5,27.2,0,33.3,0z M11.1,27.8c6.1,0,11.1,5,11.1,11.1v5.6  c0,6.1-5,11.1-11.1,11.1S0,50.6,0,44.4v-5.6C0,32.8,5,27.8,11.1,27.8z M66.7,0c6.1,0,11.1,5,11.1,11.1v5.6c0,6.1-5,11.1-11.1,11.1  s-11.1-5-11.1-11.1v-5.6C55.6,5,60.5,0,66.7,0z M88.9,27.8c6.1,0,11.1,5,11.1,11.1v5.6c0,6.1-5,11.1-11.1,11.1  c-6.1,0-11.1-5-11.1-11.1v-5.6C77.8,32.8,82.8,27.8,88.9,27.8z" />
</svg>